<?xml version="1.0" encoding="utf-8"?>
<!-- Generator: Adobe Illustrator 17.0.0, SVG Export Plug-In . SVG Version: 6.00 Build 0)  -->
<!DOCTYPE svg PUBLIC "-//W3C//DTD SVG 1.1//EN" "http://www.w3.org/Graphics/SVG/1.1/DTD/svg11.dtd">
<svg version="1.1" id="Layer_1" xmlns="http://www.w3.org/2000/svg" xmlns:xlink="http://www.w3.org/1999/xlink" x="0px" y="0px"
	 width="180px" height="72px" viewBox="0 0 180 72" enable-background="new 0 0 180 72" xml:space="preserve">
<path fill="#006174" d="M71.76,22.597c0.021,0.346-0.031,1.095-0.667,2.026c0.731,0.219,1.482,0.419,2.256,0.595
	c0.472-0.957,0.59-1.718,0.621-2.028C73.211,23.014,72.475,22.815,71.76,22.597"/>
<path fill="#006174" d="M60.527,29.779c2.101,0.59,3.832,0.955,4.913,1.156c1.924-0.585,3.413-1.309,4.568-2.082
	c-0.789-0.196-1.975-0.516-3.406-0.975C65.071,28.552,63.089,29.205,60.527,29.779"/>
<path fill="#006174" d="M72.79,26.174c-0.834-0.215-1.638-0.447-2.416-0.695c-0.558,0.556-1.337,1.148-2.419,1.738
	c1.15,0.3,2.263,0.531,3.3,0.68C71.913,27.316,72.411,26.728,72.79,26.174"/>
<path fill="#006174" d="M66.591,22.932c0.707,0.323,1.443,0.629,2.204,0.916c0.36-0.589,0.66-1.241,0.881-1.964
	c-0.706-0.269-1.387-0.556-2.043-0.858C67.528,21.398,67.257,22.112,66.591,22.932"/>
<path fill="#006174" d="M61.717,26.061c-1.943,0.684-4.518,1.196-7.925,1.331l0.715,0.343c1.436,0.581,2.833,1.071,4.135,1.482
	c1.343-0.146,3.953-0.588,6.345-1.884C63.963,26.971,62.86,26.549,61.717,26.061"/>
<path fill="#006174" d="M68.188,24.719c-0.824-0.313-1.612-0.638-2.364-0.98c-0.684,0.626-1.617,1.267-2.886,1.836
	c1.045,0.409,2.094,0.778,3.127,1.1C66.845,26.14,67.572,25.495,68.188,24.719"/>
<path fill="#006174" d="M56.656,23.525c-2.405,0.621-5.415,0.958-9.126,0.687l0.413,0.267c1.331,0.809,2.694,1.525,4.047,2.159
	c3.32-0.001,5.923-0.571,7.948-1.381C58.848,24.741,57.743,24.165,56.656,23.525"/>
<path fill="#006174" d="M62.629,20.816c0.689,0.425,1.415,0.839,2.174,1.239c0.69-0.726,1.118-1.366,1.348-1.757
	c-0.619-0.322-1.211-0.656-1.779-0.998C63.998,19.7,63.427,20.24,62.629,20.816"/>
<path fill="#006174" d="M61.595,21.498c-1.007,0.607-2.267,1.211-3.814,1.704c1.042,0.557,2.13,1.087,3.244,1.576
	c1.222-0.599,2.191-1.279,2.949-1.936C63.133,22.407,62.341,21.957,61.595,21.498"/>
<path fill="#006174" d="M58.385,17.764c0.604,0.502,1.253,1.011,1.951,1.516c0.847-0.67,1.403-1.245,1.669-1.542
	c-0.618-0.446-1.198-0.893-1.738-1.337C59.871,16.754,59.252,17.244,58.385,17.764"/>
<path fill="#006174" d="M57.28,18.368c-1.178,0.586-2.674,1.159-4.52,1.571c0.841,0.685,1.8,1.359,2.842,2.008
	c1.512-0.575,2.761-1.276,3.75-1.948C58.602,19.455,57.911,18.908,57.28,18.368"/>
<path fill="#006174" d="M45.892,23.154c0.689,0.037,1.543,0.063,2.587,0.063c2.378,0,4.442-0.382,6.196-0.945
	c-0.97-0.662-1.908-1.379-2.787-2.154c-1.48,0.273-3.165,0.442-5.068,0.442c-2.495,0-4.26-0.285-5.307-0.526
	C42.855,21.064,44.312,22.094,45.892,23.154"/>
<path fill="#006174" d="M57.105,16.653c1.04-0.528,1.704-0.991,2.019-1.232c-0.639-0.571-1.209-1.123-1.709-1.637
	c-0.377,0.222-1.101,0.608-2.2,1.023C55.766,15.386,56.395,16.007,57.105,16.653"/>
<path fill="#006174" d="M50.472,17.666c0.252,0.325,0.54,0.65,0.857,0.975c1.901-0.414,3.439-0.94,4.64-1.456
	c-0.729-0.695-1.359-1.363-1.897-1.982c-1.211,0.381-2.737,0.754-4.604,1.023C49.771,16.709,50.103,17.192,50.472,17.666"/>
<path fill="#006174" d="M40.554,19.281c1.073,0.065,2.427,0.14,3.038,0.14c2.672,0,4.971-0.244,6.922-0.614
	c-0.814-0.837-1.499-1.658-2.074-2.45c-1.433,0.164-3.047,0.264-4.848,0.264c-2.368,0-5.281-0.545-6.965-0.911
	C37.799,16.942,39.104,18.117,40.554,19.281"/>
<path fill="#006174" d="M56.385,12.673c-0.781-0.883-1.291-1.561-1.53-1.895c-0.42,0.216-1.156,0.529-2.32,0.818
	c0.255,0.362,0.807,1.11,1.657,2.087C55.205,13.287,55.96,12.905,56.385,12.673"/>
<path fill="#006174" d="M48.782,15.026c1.654-0.185,3.13-0.557,4.349-0.961c-0.809-1.041-1.305-1.846-1.543-2.26
	c-1.052,0.206-2.366,0.381-3.993,0.475C47.898,13.149,48.285,14.08,48.782,15.026"/>
<path fill="#006174" d="M35.315,14.241c1.742,0.399,5.165,0.91,11.267,0.91c0.351,0,0.697-0.01,1.036-0.029
	c-0.606-0.995-1.043-1.932-1.354-2.788c-0.416,0.01-0.846,0.016-1.296,0.016c-6.306,0-10.813-1.536-12.481-2.206
	C33.308,11.613,34.247,12.962,35.315,14.241"/>
<path fill="#006174" d="M45.537,7.793c-7.19-0.104-13.772-2.513-15.41-3.159c0.457,1.432,0.981,2.759,1.578,3.999
	c2.816,1.08,8.501,2.106,11.27,2.106c0.851,0,1.82-0.014,2.804-0.046C45.475,9.327,45.494,8.308,45.537,7.793"/>
<polyline fill="#006174" points="104.701,25.161 104.701,24.925 102.283,24.165 102.283,24.403 103.469,25.351 "/>
<path fill="#006174" d="M104.513,28.673c0,0-2.229-0.854-9.014,0.949l0.284-0.901l-1.85,0.711v-0.853l-3.084,1.802l-0.095-1.328
	l-2.61,1.566l1.092-1.945l-1.327,0.901l0.663-2.04L85.82,29.29l1.329-2.182L85.63,27.25l1.755-1.282l-1.329-0.189l1.093-0.901
	l-1.9,0.047l1.473-1.185l-3.702,1.565l2.137,0.286l-1.283,0.664l1.471,0.285l-1.613,1.043l1.753,0.237l-1.279,0.949h1.233
	l-0.806,2.419l2.467-1.66l-0.286,1.802l0.808-0.569L87.1,32.42l2.895-1.755l0.235,1.329l2.895-1.993v0.997l1.469-0.997l0.145,1.233
	C94.74,31.234,100.098,29.005,104.513,28.673"/>
<path fill="#006174" d="M113.203,27.596c0.579-0.186,1.696-0.595,3.157-1.374c-1.648-0.356-2.932-0.858-3.932-1.427
	c-0.927,0.546-1.672,0.909-2.124,1.113C111.046,26.531,111.995,27.115,113.203,27.596"/>
<path fill="#006174" d="M109.512,21.92c-0.421-0.804-0.541-1.499-0.575-1.873c-0.573,0.34-1.017,0.549-1.296,0.669
	c0.013,0.376,0.078,1.075,0.368,1.912C108.319,22.508,108.841,22.285,109.512,21.92"/>
<path fill="#006174" d="M109.997,22.699c-0.732,0.429-1.299,0.704-1.598,0.842c0.25,0.49,0.584,1.001,1.025,1.504
	c0.748-0.206,1.477-0.469,2.18-0.779C110.901,23.759,110.382,23.221,109.997,22.699"/>
<path fill="#006174" d="M112.213,20.134c-0.489-0.763-0.689-1.469-0.769-1.908c-0.453,0.388-0.881,0.722-1.278,1.012
	c0.096,0.464,0.289,1.148,0.652,1.897C111.254,20.849,111.721,20.517,112.213,20.134"/>
<path fill="#006174" d="M115.463,22.724c-0.717,0.562-1.406,1.045-2.041,1.457c1.002,0.682,2.303,1.221,3.987,1.451
	c0.869-0.516,1.826-1.15,2.841-1.925C118.227,23.603,116.668,23.232,115.463,22.724"/>
<path fill="#006174" d="M112.734,20.827c-0.517,0.41-1.019,0.772-1.487,1.087c0.378,0.605,0.878,1.222,1.532,1.776
	c0.708-0.378,1.39-0.805,2.042-1.266C113.897,21.949,113.227,21.389,112.734,20.827"/>
<path fill="#006174" d="M114.673,17.912c-0.651-0.604-1.066-1.18-1.295-1.549c-0.368,0.395-0.725,0.756-1.073,1.087
	c0.188,0.414,0.52,1.049,1.041,1.736C113.778,18.801,114.223,18.378,114.673,17.912"/>
<path fill="#006174" d="M124.151,20.21c-2.312,0.36-4.181,0.206-5.679-0.211c-0.64,0.672-1.286,1.279-1.919,1.828
	c1.287,0.615,2.91,0.997,4.936,0.884C122.353,21.982,123.246,21.153,124.151,20.21"/>
<path fill="#006174" d="M117.872,19.812c-1.051-0.364-1.897-0.854-2.563-1.364c-0.468,0.506-0.944,0.971-1.416,1.398
	c0.545,0.595,1.237,1.191,2.097,1.685C116.655,20.987,117.285,20.409,117.872,19.812"/>
<path fill="#006174" d="M116.028,16.398c0.446-0.543,0.859-1.087,1.235-1.624c-0.678-0.492-1.159-0.991-1.477-1.377
	c-0.362,0.506-0.723,0.98-1.078,1.425C114.976,15.216,115.415,15.792,116.028,16.398"/>
<path fill="#006174" d="M120.719,16.347c-1.172-0.29-2.121-0.722-2.88-1.188c-0.381,0.584-0.795,1.174-1.246,1.76
	c0.671,0.574,1.497,1.137,2.49,1.569C119.687,17.779,120.235,17.059,120.719,16.347"/>
<path fill="#006174" d="M121.313,16.477c-0.543,0.8-1.106,1.541-1.683,2.229c1.519,0.55,3.383,0.778,5.62,0.314
	c0.932-1.039,1.778-2.06,2.547-3.069c-0.781,0.275-2.38,0.765-3.88,0.765C122.956,16.716,122.089,16.628,121.313,16.477"/>
<path fill="#006174" d="M122.737,12.628c-1.239-0.152-2.256-0.401-3.067-0.672c-0.32,0.645-0.691,1.338-1.114,2.055
	c0.778,0.414,1.764,0.807,2.97,1.067C122.035,14.212,122.442,13.382,122.737,12.628"/>
<path fill="#006174" d="M122.111,15.191c0.733,0.124,1.539,0.197,2.423,0.197c1.596,0,2.934-0.148,3.903-0.305
	c0.896-1.25,1.67-2.489,2.336-3.745c-1.008,0.545-3.038,1.442-5.481,1.442c-0.723,0-1.392-0.033-2.011-0.091
	C122.868,13.752,122.442,14.598,122.111,15.191"/>
<path fill="#006174" d="M116.425,12.468c0.256,0.262,0.768,0.731,1.561,1.218c0.425-0.677,0.796-1.329,1.112-1.938
	c-0.831-0.325-1.381-0.65-1.684-0.853C117.085,11.449,116.756,11.973,116.425,12.468"/>
<path fill="#006174" d="M121.126,8.567c-0.175,0.494-0.482,1.299-0.933,2.292c0.837,0.35,1.833,0.635,2.908,0.68
	c0.252-0.868,0.438-1.799,0.576-2.702C122.668,8.82,121.821,8.712,121.126,8.567"/>
<path fill="#006174" d="M124.366,8.835c-0.18,0.989-0.417,1.894-0.682,2.708c2.615-0.041,5.915-0.63,7.779-1.592
	c0.626-1.345,1.136-2.718,1.55-4.142C130.413,7.79,127.636,8.762,124.366,8.835"/>
<path fill="#006174" d="M118.097,9.699c0.348,0.244,0.884,0.591,1.561,0.916c0.433-0.934,0.723-1.698,0.891-2.185
	c-0.698-0.186-1.198-0.398-1.508-0.554C118.728,8.513,118.415,9.12,118.097,9.699"/>
<path fill="#006174" d="M124.979,7.553c4.583-0.044,7.855-2.08,8.756-2.708c0.3-1.232,0.534-2.509,0.71-3.845
	c-1.966,1.301-2.643,1.726-7.103,3.093c-0.75,0.229-1.509,0.415-2.264,0.564C125.115,5.672,125.075,6.641,124.979,7.553"/>
<path fill="#006174" d="M114.997,4.855c-0.901,0-1.991,0.095-3.178,0.949c-1.188,0.854-6.074,7.448-8.446,11.245
	c-1.867,2.986-3.409,3.944-3.982,4.219c-0.637-0.058-1.332-0.092-2.091-0.092c-3.91,0-8.007,1.11-10.316,1.856
	C84.289,22.82,77.642,16.156,71.3,11.64c-5.62-4.002-6.453-4.413-9.489-4.413c-2.986,0-4.688,0.551-15.253,0.57
	c0.051,0.475,0.187,1.512,0.538,2.844c1.993-0.095,3.854-0.262,4.704-0.519c1.454-0.439,1.803-1.139,1.803-1.139
	s4.65-0.427,8.35-0.427c4.46,0,9.963,5.646,11.387,6.737s6.974,5.172,9.822,6.975c1.296,0.821,2.268,1.051,2.942,1.058
	c-0.635,0.22-0.999,0.364-0.999,0.364s7.877-1.613,12.336-1.613c4.461,0,7.212,1.898,7.212,1.898l0.475,1.139
	c0.903,0.331,4.034,1.66,4.034,3.178s-1.567,1.234-1.567,1.234s0.665-0.665,0.096-1.187c-0.57-0.521-4.081-0.617-4.081-0.617
	s0.428,0.617,2.039,0.617c0.907,0,1.281,0.665,1.281,0.665L106.315,30c0,0,3.558,0.712,3.558-1.613c0-2.609-4.033-3.937-4.033-3.937
	l-0.569-1.282c0,0-1.259-1.201-4.575-1.739c2.633-2.127,8.028-9.673,9.794-12.163c1.85-2.609,3.415-3.131,4.792-3.131h4.556
	c0,0-0.393,1.05,4.035,1.133c0.12-1.19,0.164-2.207,0.178-2.777C119.737,5.235,115.734,4.855,114.997,4.855"/>
<polyline fill="#006174" points="66.977,33.074 57.954,29.864 4,29.864 4,33.074 "/>
<polyline fill="#006174" points="177.5,33.074 177.5,29.864 113.135,29.864 108.105,33.074 "/>
<polyline fill="#006174" points="177.5,55.881 177.5,52.672 113.135,52.672 108.105,55.881 "/>
<polyline fill="#006174" points="67.404,55.881 58.381,52.672 4.428,52.672 4.428,55.881 "/>
<g>
	<g>
		<path fill="#006174" d="M74.486,52.149l0.121,1.207c0.006,0.056,0.008,0.1,0.008,0.133c0,0.086-0.037,0.129-0.112,0.129
			c-0.069,0-0.127-0.049-0.174-0.146c-0.217-0.447-0.502-0.81-0.856-1.09c-0.354-0.28-0.761-0.42-1.222-0.42
			c-0.594,0-1.058,0.248-1.393,0.745c-0.334,0.497-0.502,1.084-0.502,1.76c0,0.755,0.185,1.373,0.556,1.854
			c0.37,0.481,0.807,0.722,1.309,0.722c0.214,0,0.431-0.049,0.651-0.148c0.221-0.098,0.362-0.204,0.424-0.316
			c0.062-0.112,0.094-0.274,0.094-0.485c0-0.466-0.019-0.757-0.056-0.872c-0.038-0.115-0.1-0.195-0.186-0.239
			s-0.262-0.082-0.527-0.112c-0.103-0.011-0.155-0.051-0.155-0.121c0-0.08,0.049-0.121,0.146-0.121h0.629l1.921-0.042
			c0.086,0,0.129,0.036,0.129,0.108c0,0.042-0.017,0.07-0.05,0.085c-0.033,0.015-0.15,0.044-0.35,0.085
			c-0.15,0.033-0.246,0.083-0.287,0.15s-0.074,0.484-0.096,1.254c-0.006,0.171-0.011,0.268-0.017,0.288
			c-0.006,0.021-0.17,0.115-0.493,0.283s-0.656,0.293-0.999,0.375s-0.683,0.123-1.022,0.123c-0.572,0-1.082-0.112-1.531-0.337
			s-0.812-0.542-1.086-0.951c-0.275-0.409-0.412-0.897-0.412-1.463c0-0.799,0.275-1.489,0.826-2.07
			c0.551-0.581,1.305-0.872,2.262-0.872c0.339,0,0.644,0.041,0.918,0.123c0.273,0.082,0.583,0.199,0.93,0.352
			c0.069,0.031,0.129,0.046,0.179,0.046c0.055,0,0.098-0.04,0.129-0.121c0.039-0.105,0.09-0.158,0.154-0.158
			C74.424,51.887,74.47,51.974,74.486,52.149z"/>
		<path fill="#006174" d="M79.954,51.579h0.284c0.366,0.794,0.883,2.042,1.551,3.746c0.308,0.782,0.52,1.257,0.636,1.423
			c0.117,0.166,0.301,0.268,0.554,0.304c0.083,0.011,0.125,0.047,0.125,0.108c0,0.086-0.054,0.129-0.162,0.129
			c-0.058,0-0.21-0.01-0.454-0.029c-0.289-0.025-0.531-0.038-0.728-0.038c-0.191,0-0.441,0.011-0.749,0.033
			c-0.23,0.017-0.381,0.025-0.454,0.025c-0.128,0-0.191-0.04-0.191-0.121c0-0.061,0.044-0.096,0.133-0.104
			c0.341-0.031,0.512-0.165,0.512-0.402c0-0.112-0.05-0.316-0.149-0.614c-0.1-0.297-0.206-0.568-0.32-0.811
			c-0.181-0.003-0.321-0.004-0.421-0.004c-0.559,0-0.994,0.001-1.306,0.004c-0.239,0.655-0.359,1.089-0.359,1.301
			c0,0.152,0.06,0.27,0.179,0.354s0.248,0.133,0.387,0.147c0.105,0.011,0.158,0.054,0.158,0.129s-0.057,0.112-0.171,0.112
			c-0.044,0-0.161-0.007-0.35-0.021c-0.244-0.019-0.422-0.029-0.533-0.029c-0.219,0-0.427,0.014-0.624,0.042
			c-0.05,0.008-0.092,0.013-0.125,0.013c-0.103,0-0.154-0.042-0.154-0.125c0-0.061,0.033-0.101,0.1-0.121
			c0.166-0.047,0.297-0.105,0.391-0.174s0.196-0.202,0.306-0.398s0.241-0.51,0.394-0.943C78.759,54.545,79.272,53.232,79.954,51.579
			z M79.66,53.031l-0.723,1.86l1.472-0.021c-0.078-0.218-0.197-0.516-0.357-0.895C79.877,53.565,79.746,53.25,79.66,53.031z"/>
		<path fill="#006174" d="M89.282,54.242l0.038-1.263c0-0.354-0.036-0.606-0.108-0.756s-0.223-0.228-0.454-0.237
			c-0.189-0.008-0.283-0.053-0.283-0.133c0-0.086,0.055-0.129,0.166-0.129c0.127,0,0.321,0.006,0.582,0.019
			c0.335,0.015,0.522,0.023,0.561,0.023c0.471,0,0.884-0.011,1.238-0.033c0.066-0.006,0.114-0.008,0.141-0.008
			c0.105,0,0.158,0.039,0.158,0.117c0,0.086-0.06,0.13-0.179,0.133c-0.194,0.003-0.332,0.029-0.414,0.079s-0.139,0.127-0.171,0.231
			s-0.058,0.471-0.077,1.1c-0.019,0.629-0.029,1.061-0.029,1.297c0,0.977,0.006,1.576,0.019,1.795s0.062,0.372,0.15,0.458
			c0.087,0.086,0.236,0.129,0.447,0.129c0.13,0,0.196,0.042,0.196,0.125c0,0.072-0.05,0.108-0.15,0.108
			c-0.033,0-0.105-0.004-0.216-0.013l-1.151-0.042c-0.069,0-0.202,0.006-0.399,0.017c-0.377,0.025-0.621,0.037-0.731,0.037
			c-0.1,0-0.15-0.04-0.15-0.121c0-0.072,0.041-0.108,0.124-0.108c0.199,0,0.344-0.035,0.435-0.104
			c0.091-0.069,0.157-0.229,0.199-0.479c0.041-0.25,0.062-0.748,0.062-1.494c0-0.078-0.003-0.194-0.008-0.349
			c-0.486-0.014-0.916-0.021-1.29-0.021c-0.43,0-0.77,0.014-1.02,0.042c-0.031,0.558-0.046,1.063-0.046,1.515
			c0,0.322,0.035,0.545,0.106,0.67s0.218,0.193,0.443,0.204c0.108,0.006,0.162,0.046,0.162,0.121c0,0.078-0.057,0.116-0.171,0.116
			c-0.042,0-0.103-0.004-0.183-0.013c-0.331-0.031-0.677-0.046-1.038-0.046c-0.17,0-0.396,0.008-0.679,0.023
			c-0.2,0.013-0.329,0.019-0.388,0.019c-0.145,0-0.217-0.042-0.217-0.125c0-0.067,0.057-0.107,0.171-0.121
			c0.214-0.022,0.359-0.068,0.435-0.137s0.133-0.2,0.171-0.393c0.037-0.193,0.06-0.742,0.067-1.649
			c0.007-0.906,0.01-1.401,0.01-1.485c0-0.41-0.015-0.708-0.044-0.892s-0.078-0.308-0.148-0.372
			c-0.069-0.064-0.176-0.104-0.32-0.121c-0.111-0.017-0.18-0.033-0.208-0.048s-0.042-0.048-0.042-0.098
			c0-0.083,0.047-0.125,0.142-0.125c0.12,0,0.321,0.011,0.604,0.033c0.158,0.011,0.338,0.017,0.538,0.017l1.175-0.042
			c0.136,0,0.204,0.043,0.204,0.129c0,0.083-0.056,0.125-0.166,0.125c-0.183,0-0.309,0.022-0.379,0.067
			c-0.069,0.045-0.121,0.132-0.154,0.263s-0.05,0.384-0.05,0.759l0.008,1.184c0.352,0.036,0.732,0.054,1.14,0.054
			C88.518,54.296,88.908,54.278,89.282,54.242z"/>
		<path fill="#006174" d="M95.882,51.579h0.284c0.366,0.794,0.883,2.042,1.551,3.746c0.308,0.782,0.52,1.257,0.636,1.423
			c0.117,0.166,0.301,0.268,0.554,0.304c0.083,0.011,0.125,0.047,0.125,0.108c0,0.086-0.054,0.129-0.162,0.129
			c-0.058,0-0.21-0.01-0.454-0.029c-0.289-0.025-0.531-0.038-0.728-0.038c-0.191,0-0.441,0.011-0.749,0.033
			c-0.23,0.017-0.382,0.025-0.454,0.025c-0.128,0-0.192-0.04-0.192-0.121c0-0.061,0.044-0.096,0.133-0.104
			c0.341-0.031,0.512-0.165,0.512-0.402c0-0.112-0.05-0.316-0.15-0.614c-0.1-0.297-0.206-0.568-0.32-0.811
			c-0.181-0.003-0.321-0.004-0.421-0.004c-0.559,0-0.995,0.001-1.306,0.004c-0.239,0.655-0.359,1.089-0.359,1.301
			c0,0.152,0.06,0.27,0.179,0.354s0.248,0.133,0.387,0.147c0.105,0.011,0.158,0.054,0.158,0.129s-0.057,0.112-0.171,0.112
			c-0.045,0-0.161-0.007-0.35-0.021c-0.244-0.019-0.422-0.029-0.533-0.029c-0.219,0-0.427,0.014-0.624,0.042
			c-0.05,0.008-0.091,0.013-0.125,0.013c-0.103,0-0.154-0.042-0.154-0.125c0-0.061,0.033-0.101,0.1-0.121
			c0.166-0.047,0.297-0.105,0.391-0.174s0.196-0.202,0.306-0.398s0.241-0.51,0.394-0.943C94.687,54.545,95.2,53.232,95.882,51.579z
			 M95.588,53.031l-0.723,1.86l1.472-0.021c-0.078-0.218-0.197-0.516-0.357-0.895C95.804,53.565,95.674,53.25,95.588,53.031z"/>
		<path fill="#006174" d="M104.049,54.429c0.373,0.053,0.681,0.166,0.924,0.34c0.242,0.174,0.424,0.52,0.546,1.038
			c0.116,0.484,0.24,0.804,0.37,0.958c0.13,0.155,0.314,0.239,0.549,0.253c0.13,0.008,0.196,0.05,0.196,0.125
			c0,0.08-0.106,0.121-0.316,0.121l-1.602-0.042c-0.167-0.167-0.28-0.464-0.341-0.892c-0.078-0.547-0.158-0.934-0.241-1.159
			s-0.208-0.386-0.375-0.484c-0.167-0.097-0.359-0.146-0.579-0.146c-0.064,0-0.151,0.004-0.262,0.013
			c0,0.977,0.003,1.578,0.01,1.804s0.052,0.388,0.135,0.487s0.241,0.153,0.474,0.164c0.125,0.008,0.187,0.05,0.187,0.125
			s-0.054,0.112-0.162,0.112l-1.278-0.033c-0.172,0-0.393,0.007-0.662,0.021c-0.247,0.014-0.404,0.021-0.47,0.021
			c-0.114,0-0.171-0.04-0.171-0.121c0-0.078,0.05-0.117,0.15-0.117c0.155,0,0.299-0.039,0.431-0.117
			c0.132-0.078,0.198-0.407,0.198-0.986l-0.004-0.774l0.004-1.494c0-0.771-0.034-1.242-0.102-1.413
			c-0.068-0.171-0.25-0.259-0.547-0.264c-0.117-0.003-0.175-0.043-0.175-0.121c0-0.08,0.078-0.121,0.233-0.121
			c0.782,0,1.446-0.017,1.989-0.05c0.241-0.017,0.459-0.025,0.653-0.025c0.63,0,1.124,0.126,1.482,0.377s0.537,0.579,0.537,0.984
			c0,0.272-0.085,0.516-0.254,0.733c-0.169,0.216-0.381,0.377-0.635,0.483C104.688,54.335,104.39,54.402,104.049,54.429z
			 M102.917,54.255c0.072,0.003,0.126,0.004,0.162,0.004c0.241,0,0.485-0.045,0.73-0.135c0.246-0.09,0.419-0.234,0.52-0.433
			c0.101-0.198,0.152-0.41,0.152-0.635c0-0.347-0.103-0.617-0.308-0.812c-0.205-0.194-0.47-0.291-0.795-0.291
			c-0.136,0-0.29,0.025-0.462,0.075L102.917,54.255L102.917,54.255z"/>
	</g>
</g>
<g>
	<g>
		<path fill="#006174" d="M11.086,44.942h0.718v0.881h-0.826c-0.747,0-1.283-0.275-1.609-0.826c-0.348,0.333-0.779,0.5-1.294,0.5
			c-0.638,0-1.145-0.239-1.522-0.717c-0.312-0.406-0.468-0.902-0.468-1.489c0-0.703,0.214-1.268,0.641-1.696
			c0.362-0.37,0.805-0.554,1.326-0.554c0.399,0,0.743,0.102,1.033,0.304v-0.467l0.946-0.5v3.479
			C10.032,44.58,10.383,44.942,11.086,44.942z M9.086,42.354c-0.268-0.297-0.598-0.446-0.989-0.446c-0.319,0-0.58,0.129-0.783,0.386
			S7.01,42.887,7.01,43.3c0,0.42,0.101,0.757,0.304,1.011s0.468,0.381,0.794,0.381c0.406,0,0.739-0.167,1-0.5
			c-0.015-0.13-0.022-0.232-0.022-0.304C9.086,43.888,9.086,42.354,9.086,42.354z M7.683,39.68c-0.355,0-0.533-0.181-0.533-0.544
			c0-0.355,0.178-0.533,0.533-0.533c0.348,0,0.522,0.178,0.522,0.533C8.205,39.499,8.031,39.68,7.683,39.68z M9.064,39.68
			c-0.355,0-0.533-0.181-0.533-0.544c0-0.355,0.178-0.533,0.533-0.533c0.348,0,0.522,0.178,0.522,0.533
			C9.586,39.499,9.412,39.68,9.064,39.68z"/>
		<path fill="#006174" d="M14.935,44.942h0.718v0.881h-0.826c-0.602,0-1.076-0.192-1.424-0.576
			c-0.348,0.384-0.823,0.576-1.424,0.576h-0.826v-0.881h0.718c0.71,0,1.065-0.362,1.065-1.087v-2.251l0.935-0.5v2.751
			C13.869,44.58,14.224,44.942,14.935,44.942z M12.336,46.91c0.348,0,0.522,0.181,0.522,0.544c0,0.355-0.174,0.533-0.522,0.533
			c-0.355,0-0.533-0.178-0.533-0.533C11.804,47.091,11.981,46.91,12.336,46.91z M13.717,46.91c0.348,0,0.522,0.181,0.522,0.544
			c0,0.355-0.174,0.533-0.522,0.533c-0.355,0-0.533-0.178-0.533-0.533C13.184,47.091,13.362,46.91,13.717,46.91z"/>
		<path fill="#006174" d="M22.088,44.942h0.707v0.881h-0.718c-0.587,0-1.058-0.067-1.413-0.201s-0.685-0.371-0.989-0.712
			c-0.913,0.609-1.979,0.913-3.196,0.913H15v-0.881h1.489c1.471,0,2.635-0.485,3.49-1.457c-0.602-1.109-1.334-1.663-2.196-1.663
			c-0.587,0-1.192,0.312-1.816,0.935v-0.87c0.609-0.616,1.254-0.924,1.935-0.924c0.558,0,1.098,0.201,1.62,0.603
			c0.522,0.402,0.982,0.977,1.381,1.723v0.478c-0.225,0.283-0.439,0.511-0.642,0.685C20.653,44.779,21.262,44.942,22.088,44.942z"/>
		<path fill="#006174" d="M33.275,44.942h0.718v0.881h-0.826c-0.609,0-1.084-0.188-1.424-0.565
			c-0.341,0.377-0.815,0.565-1.424,0.565h-4.501c-0.602,0-1.076-0.192-1.424-0.576c-0.348,0.384-0.823,0.576-1.424,0.576h-0.826
			v-0.881h0.718c0.71,0,1.065-0.362,1.065-1.087v-1.522l0.935-0.5v2.022c0,0.609,0.235,0.96,0.707,1.055
			c0.29-1.094,0.768-2.008,1.435-2.74c0.746-0.804,1.616-1.207,2.609-1.207c0.826,0,1.486,0.286,1.979,0.859
			c0.413,0.486,0.62,1.084,0.62,1.794v0.261C32.21,44.587,32.565,44.942,33.275,44.942z M30.264,44.942
			c0.674,0,1.011-0.377,1.011-1.131v-0.196c0-0.565-0.174-1.015-0.522-1.348c-0.304-0.29-0.681-0.435-1.131-0.435
			c-0.768,0-1.461,0.355-2.077,1.065c-0.471,0.544-0.834,1.225-1.087,2.044h3.806V44.942z"/>
		<path fill="#006174" d="M33.341,45.822v-0.881h0.576c0.754,0,1.131-0.395,1.131-1.185V39.31l0.946-0.5v4.958
			c0,0.645-0.192,1.156-0.576,1.533c-0.362,0.348-0.837,0.522-1.424,0.522h-0.653V45.822z"/>
		<path fill="#006174" d="M37.95,45.822V39.31l0.935-0.5v7.012C38.885,45.822,37.95,45.822,37.95,45.822z"/>
		<path fill="#006174" d="M47.724,44.942h0.718v0.881h-0.826c-0.747,0-1.283-0.275-1.609-0.826c-0.348,0.333-0.779,0.5-1.294,0.5
			c-0.638,0-1.145-0.239-1.522-0.717c-0.312-0.406-0.467-0.902-0.467-1.489c0-0.703,0.214-1.268,0.641-1.696
			c0.362-0.37,0.805-0.554,1.326-0.554c0.399,0,0.743,0.102,1.033,0.304v-0.467l0.946-0.5v3.479
			C46.669,44.58,47.021,44.942,47.724,44.942z M45.724,42.354c-0.268-0.297-0.598-0.446-0.989-0.446
			c-0.319,0-0.58,0.129-0.783,0.386s-0.305,0.593-0.305,1.006c0,0.42,0.102,0.757,0.305,1.011s0.467,0.381,0.794,0.381
			c0.406,0,0.739-0.167,1-0.5c-0.015-0.13-0.022-0.232-0.022-0.304V42.354z M44.321,39.68c-0.355,0-0.533-0.181-0.533-0.544
			c0-0.355,0.178-0.533,0.533-0.533c0.348,0,0.522,0.178,0.522,0.533C44.843,39.499,44.669,39.68,44.321,39.68z M45.702,39.68
			c-0.355,0-0.533-0.181-0.533-0.544c0-0.355,0.177-0.533,0.533-0.533c0.348,0,0.522,0.178,0.522,0.533
			C46.224,39.499,46.05,39.68,45.702,39.68z"/>
		<path fill="#006174" d="M47.789,45.822v-0.881h0.718c0.71,0,1.065-0.362,1.065-1.087v-2.251l0.935-0.5v2.783
			c0,0.616-0.185,1.102-0.554,1.457c-0.341,0.319-0.787,0.478-1.337,0.478L47.789,45.822L47.789,45.822z M49.539,47.986
			c-0.355,0-0.533-0.181-0.533-0.544c0-0.355,0.177-0.533,0.533-0.533c0.348,0,0.522,0.178,0.522,0.533
			C50.061,47.805,49.887,47.986,49.539,47.986z"/>
		<path fill="#006174" d="M54.356,45.822c-0.631,0-1.116-0.203-1.457-0.609c-0.29-0.348-0.435-0.79-0.435-1.326V39.31l0.935-0.5
			v5.045c0,0.725,0.355,1.087,1.065,1.087h0.718v0.881h-0.826C54.356,45.823,54.356,45.822,54.356,45.822z"/>
		<path fill="#006174" d="M54.529,45.822v-0.881h1.957c-0.333-0.37-0.5-0.884-0.5-1.544c0-0.79,0.207-1.406,0.62-1.848
			c0.362-0.391,0.844-0.587,1.446-0.587c0.616,0,1.094,0.192,1.435,0.576c0.29,0.341,0.435,0.787,0.435,1.337v1.033
			c-0.007,0.602-0.185,1.076-0.533,1.424c-0.341,0.326-0.794,0.489-1.359,0.489L54.529,45.822L54.529,45.822z M57.367,39.865
			c-0.355,0-0.533-0.181-0.533-0.544c0-0.355,0.177-0.533,0.533-0.533c0.348,0,0.522,0.178,0.522,0.533
			C57.889,39.684,57.715,39.865,57.367,39.865z M58.987,42.92c0-0.725-0.312-1.087-0.935-1.087c-0.355,0-0.634,0.136-0.837,0.408
			c-0.203,0.272-0.304,0.651-0.304,1.136c0,0.478,0.098,0.859,0.293,1.142c0.196,0.283,0.457,0.424,0.783,0.424
			c0.667,0,1-0.348,1-1.044C58.987,43.899,58.987,42.92,58.987,42.92z M58.748,39.865c-0.355,0-0.533-0.181-0.533-0.544
			c0-0.355,0.178-0.533,0.533-0.533c0.348,0,0.522,0.178,0.522,0.533C59.27,39.684,59.096,39.865,58.748,39.865z"/>
		<path fill="#006174" d="M64.434,44.942h0.718v0.881h-0.826c-0.37,0-0.689-0.072-0.957-0.217c-0.065,0.718-0.315,1.29-0.75,1.718
			c-0.399,0.391-0.899,0.587-1.5,0.587c-0.435,0-0.859-0.109-1.272-0.326V46.77c0.37,0.203,0.739,0.304,1.109,0.304
			c0.464,0,0.826-0.156,1.087-0.467c0.261-0.312,0.392-0.743,0.392-1.294v-3.707l0.935-0.5v0.011l0.011-0.011v2.968
			C63.444,44.652,63.796,44.942,64.434,44.942z"/>
		<path fill="#006174" d="M64.499,45.822v-0.881h0.576c0.754,0,1.131-0.395,1.131-1.185V39.31l0.946-0.5v4.958
			c0,0.645-0.192,1.156-0.576,1.533c-0.362,0.348-0.837,0.522-1.424,0.522h-0.653C64.499,45.823,64.499,45.822,64.499,45.822z"/>
		<path fill="#006174" d="M69.108,45.822V39.31l0.935-0.5v7.012C70.043,45.822,69.108,45.822,69.108,45.822z"/>
		<path fill="#006174" d="M74.675,45.475c-0.276,0.109-0.613,0.163-1.011,0.163c-0.645,0-1.152-0.243-1.522-0.728
			c-0.312-0.413-0.467-0.931-0.467-1.555c0-0.768,0.207-1.37,0.62-1.805c0.37-0.391,0.855-0.587,1.457-0.587
			c0.616,0,1.091,0.192,1.424,0.576c0.297,0.341,0.446,0.787,0.446,1.337v2.37c0,0.819-0.214,1.468-0.641,1.946
			c-0.406,0.449-0.946,0.674-1.62,0.674c-0.45,0-0.874-0.105-1.272-0.315v-0.826c0.384,0.203,0.765,0.304,1.142,0.304
			c0.428,0,0.768-0.136,1.022-0.408C74.504,46.35,74.646,45.967,74.675,45.475z M74.675,42.92c0-0.725-0.308-1.087-0.924-1.087
			c-0.363,0-0.647,0.134-0.853,0.402c-0.207,0.268-0.31,0.634-0.31,1.098c0,0.457,0.1,0.821,0.299,1.093
			c0.199,0.272,0.469,0.408,0.81,0.408c0.478,0,0.805-0.134,0.979-0.402L74.675,42.92L74.675,42.92z"/>
		<path fill="#006174" d="M79.132,45.822l0.457-0.881h1.935c0.29,0,0.495-0.072,0.614-0.217c0.12-0.145,0.179-0.395,0.179-0.75
			c0-0.971-0.439-1.707-1.316-2.207l0.457-0.772c1.196,0.681,1.794,1.678,1.794,2.99c0,1.225-0.522,1.837-1.566,1.837
			C81.686,45.822,79.132,45.822,79.132,45.822z"/>
		<path fill="#006174" d="M86.884,45.822c-0.631,0-1.116-0.203-1.457-0.609c-0.29-0.348-0.435-0.79-0.435-1.326V39.31l0.935-0.5
			v5.045c0,0.725,0.355,1.087,1.065,1.087h0.718v0.881h-0.826C86.884,45.823,86.884,45.822,86.884,45.822z"/>
		<path fill="#006174" d="M94.059,44.942h0.728v0.881h-0.826c-0.602,0-1.076-0.192-1.424-0.576c-0.37,0.529-0.91,0.794-1.62,0.794
			s-1.247-0.261-1.609-0.783c-0.341,0.377-0.815,0.565-1.424,0.565h-0.826v-0.881h0.718c0.71,0,1.065-0.362,1.065-1.087v-0.359
			c0-0.841,0.207-1.486,0.62-1.935c0.362-0.399,0.848-0.598,1.457-0.598c0.696,0,1.232,0.257,1.609,0.772
			c0.319,0.442,0.478,1.029,0.478,1.761v0.359C93.005,44.58,93.356,44.942,94.059,44.942z M90.917,45.159
			c0.355,0,0.636-0.148,0.843-0.446c0.207-0.297,0.31-0.707,0.31-1.229c0-1.102-0.384-1.652-1.152-1.652
			c-0.761,0-1.141,0.551-1.141,1.652C89.776,44.601,90.156,45.159,90.917,45.159z"/>
		<path fill="#006174" d="M97.918,44.942h0.718v0.881H97.81c-0.602,0-1.076-0.192-1.424-0.576c-0.348,0.384-0.823,0.576-1.424,0.576
			h-0.826v-0.881h0.718c0.71,0,1.065-0.362,1.065-1.087v-2.251l0.935-0.5v2.751C96.853,44.58,97.208,44.942,97.918,44.942z
			 M95.353,39.865c-0.355,0-0.533-0.181-0.533-0.544c0-0.355,0.177-0.533,0.533-0.533c0.348,0,0.522,0.178,0.522,0.533
			C95.875,39.684,95.701,39.865,95.353,39.865z M96.744,39.865c-0.355,0-0.533-0.181-0.533-0.544c0-0.355,0.178-0.533,0.533-0.533
			c0.348,0,0.522,0.178,0.522,0.533C97.266,39.684,97.092,39.865,96.744,39.865z"/>
		<path fill="#006174" d="M103.844,44.942v0.881h-5.86v-0.881h1.881c-0.355-0.457-0.533-1.018-0.533-1.685
			c0-0.739,0.254-1.326,0.761-1.761c0.413-0.348,0.892-0.525,1.435-0.533c0.768,0,1.366,0.308,1.794,0.924v0.881
			c-0.464-0.623-1.026-0.935-1.685-0.935c-0.413,0-0.745,0.132-0.995,0.397s-0.375,0.618-0.375,1.06c0,0.5,0.15,0.901,0.451,1.201
			c0.301,0.301,0.701,0.451,1.201,0.451C101.919,44.942,103.844,44.942,103.844,44.942z"/>
		<path fill="#006174" d="M111.399,44.942h0.718v0.881h-0.826c-0.624,0-1.105-0.199-1.446-0.598c-0.363,0.399-0.863,0.598-1.5,0.598
			h-3.74l0.457-0.881h1.587v-4.218l0.935-0.5v4.718h0.685c0.754,0,1.131-0.395,1.131-1.185V39.31l0.946-0.5v4.958
			c0,0.42,0.082,0.721,0.245,0.902C110.753,44.851,111.022,44.942,111.399,44.942z"/>
		<path fill="#006174" d="M111.465,45.822v-0.881h0.576c0.754,0,1.131-0.395,1.131-1.185V39.31l0.946-0.5v4.958
			c0,0.645-0.192,1.156-0.576,1.533c-0.362,0.348-0.837,0.522-1.424,0.522h-0.653C111.465,45.823,111.465,45.822,111.465,45.822z"/>
		<path fill="#006174" d="M122.956,44.942h0.718v0.881h-0.826c-0.747,0-1.283-0.275-1.609-0.826c-0.348,0.333-0.779,0.5-1.294,0.5
			c-0.638,0-1.145-0.239-1.522-0.717c-0.312-0.406-0.467-0.902-0.467-1.489c0-0.703,0.214-1.268,0.641-1.696
			c0.362-0.37,0.805-0.554,1.326-0.554c0.399,0,0.743,0.102,1.033,0.304v-0.467l0.946-0.5v3.479
			C121.902,44.58,122.253,44.942,122.956,44.942z M120.956,42.354c-0.268-0.297-0.598-0.446-0.989-0.446
			c-0.319,0-0.58,0.129-0.783,0.386c-0.203,0.257-0.305,0.593-0.305,1.006c0,0.42,0.102,0.757,0.305,1.011s0.467,0.381,0.794,0.381
			c0.406,0,0.739-0.167,1-0.5c-0.015-0.13-0.022-0.232-0.022-0.304V42.354z M119.553,39.68c-0.355,0-0.533-0.181-0.533-0.544
			c0-0.355,0.178-0.533,0.533-0.533c0.348,0,0.522,0.178,0.522,0.533C120.075,39.499,119.901,39.68,119.553,39.68z M120.934,39.68
			c-0.355,0-0.533-0.181-0.533-0.544c0-0.355,0.177-0.533,0.533-0.533c0.348,0,0.522,0.178,0.522,0.533
			C121.456,39.499,121.282,39.68,120.934,39.68z"/>
		<path fill="#006174" d="M124.804,42.876c0-0.63,0.188-1.12,0.565-1.468c0.333-0.297,0.768-0.446,1.305-0.446
			c0.689,0,1.218,0.254,1.587,0.761c0.319,0.428,0.478,0.986,0.478,1.674c0,0.783-0.203,1.395-0.609,1.837
			c-0.355,0.391-0.819,0.587-1.392,0.587c-0.652,0-1.149-0.181-1.489-0.544c-0.348,0.363-0.815,0.544-1.402,0.544h-0.826V44.94
			h0.718c0.71,0,1.065-0.362,1.065-1.087L124.804,42.876L124.804,42.876z M125.739,43.931c0,0.674,0.33,1.011,0.989,1.011
			c0.341,0,0.607-0.138,0.799-0.413c0.192-0.275,0.288-0.66,0.288-1.152c0-0.485-0.102-0.864-0.304-1.136
			c-0.203-0.272-0.482-0.408-0.837-0.408c-0.623,0-0.935,0.363-0.935,1.087C125.739,42.92,125.739,43.931,125.739,43.931z"/>
		<path fill="#006174" d="M132.425,45.822c-0.631,0-1.116-0.203-1.457-0.609c-0.29-0.348-0.435-0.79-0.435-1.326V39.31l0.935-0.5
			v5.045c0,0.725,0.355,1.087,1.065,1.087h0.718v0.881h-0.826V45.822z"/>
		<path fill="#006174" d="M137.97,44.942h2.87v0.881h-2.957c-0.391,0-0.779-0.076-1.163-0.228c-0.384,0.152-0.776,0.228-1.174,0.228
			H132.6v-0.881h2.87h0.152c-0.522-0.428-1.058-1.055-1.609-1.881v-0.478c0.348-0.5,0.763-0.895,1.245-1.185
			s0.966-0.435,1.452-0.435c0.485,0,0.971,0.147,1.457,0.44c0.486,0.294,0.906,0.694,1.261,1.201v0.457
			c-0.551,0.826-1.091,1.453-1.62,1.881C137.808,44.942,137.97,44.942,137.97,44.942z M134.882,42.833
			c0.667,0.913,1.279,1.515,1.837,1.805c0.558-0.297,1.171-0.902,1.837-1.816c-0.544-0.659-1.16-0.993-1.848-1
			C136.02,41.822,135.411,42.159,134.882,42.833z"/>
		<path fill="#006174" d="M140.188,45.822v-0.881h0.576c0.754,0,1.131-0.395,1.131-1.185V39.31l0.946-0.5v4.958
			c0,0.645-0.192,1.156-0.576,1.533c-0.362,0.348-0.837,0.522-1.424,0.522h-0.653V45.822z"/>
		<path fill="#006174" d="M144.797,45.822V39.31l0.935-0.5v7.012C145.732,45.822,144.797,45.822,144.797,45.822z"/>
		<path fill="#006174" d="M154.571,44.942h0.718v0.881h-0.826c-0.747,0-1.283-0.275-1.609-0.826c-0.348,0.333-0.779,0.5-1.294,0.5
			c-0.638,0-1.145-0.239-1.522-0.717c-0.312-0.406-0.467-0.902-0.467-1.489c0-0.703,0.214-1.268,0.641-1.696
			c0.362-0.37,0.805-0.554,1.326-0.554c0.398,0,0.743,0.102,1.033,0.304v-0.467l0.946-0.5v3.479
			C153.517,44.58,153.868,44.942,154.571,44.942z M152.571,42.354c-0.268-0.297-0.598-0.446-0.989-0.446
			c-0.319,0-0.58,0.129-0.783,0.386s-0.305,0.593-0.305,1.006c0,0.42,0.102,0.757,0.305,1.011c0.203,0.254,0.467,0.381,0.794,0.381
			c0.406,0,0.739-0.167,1-0.5c-0.015-0.13-0.022-0.232-0.022-0.304V42.354z M151.168,39.68c-0.355,0-0.533-0.181-0.533-0.544
			c0-0.355,0.178-0.533,0.533-0.533c0.348,0,0.522,0.178,0.522,0.533C151.69,39.499,151.516,39.68,151.168,39.68z M152.549,39.68
			c-0.355,0-0.533-0.181-0.533-0.544c0-0.355,0.177-0.533,0.533-0.533c0.348,0,0.522,0.178,0.522,0.533
			C153.071,39.499,152.897,39.68,152.549,39.68z"/>
		<path fill="#006174" d="M158.42,44.942h0.718v0.881h-0.826c-0.602,0-1.076-0.192-1.424-0.576
			c-0.348,0.384-0.823,0.576-1.424,0.576h-0.826v-0.881h0.718c0.71,0,1.065-0.362,1.065-1.087v-2.251l0.935-0.5v2.751
			C157.354,44.58,157.709,44.942,158.42,44.942z M157.582,39.245l-0.25,0.467h-1.794l0.25-0.467h0.294
			c-0.072-0.13-0.109-0.268-0.109-0.413c0-0.21,0.08-0.393,0.239-0.549s0.348-0.234,0.565-0.234c0.181,0,0.355,0.058,0.522,0.174
			v0.478c-0.16-0.123-0.312-0.185-0.457-0.185c-0.268,0-0.402,0.12-0.402,0.359c0,0.123,0.051,0.247,0.152,0.37H157.582z"/>
		<path fill="#006174" d="M162.268,44.942h0.718v0.881h-0.826c-0.602,0-1.076-0.192-1.424-0.576
			c-0.348,0.384-0.823,0.576-1.424,0.576h-0.826v-0.881h0.718c0.71,0,1.065-0.362,1.065-1.087v-2.251l0.935-0.5v2.751
			C161.203,44.58,161.558,44.942,162.268,44.942z M159.67,46.91c0.348,0,0.522,0.181,0.522,0.544c0,0.355-0.174,0.533-0.522,0.533
			c-0.355,0-0.533-0.178-0.533-0.533C159.137,47.091,159.314,46.91,159.67,46.91z M161.05,46.91c0.348,0,0.522,0.181,0.522,0.544
			c0,0.355-0.174,0.533-0.522,0.533c-0.355,0-0.533-0.178-0.533-0.533C160.518,47.091,160.695,46.91,161.05,46.91z"/>
		<path fill="#006174" d="M169.737,44.942h0.717v0.881h-0.826c-0.609,0-1.08-0.188-1.413-0.565
			c-0.355,0.377-0.837,0.565-1.446,0.565h-1.174c-0.247,0-0.478-0.036-0.696-0.109c-0.225,0.073-0.457,0.109-0.696,0.109h-1.87
			v-0.881h1.402c-0.275-0.37-0.413-0.79-0.413-1.261c0-0.428,0.105-0.79,0.315-1.087c0.181-0.667,0.525-1.178,1.033-1.533
			c0.413-0.283,0.881-0.424,1.402-0.424c0.768,0,1.402,0.261,1.903,0.783c0.471,0.493,0.707,1.127,0.707,1.903v0.533
			C168.682,44.58,169.034,44.942,169.737,44.942z M164.899,44.844c0.594-0.203,0.892-0.609,0.892-1.218
			c0-0.304-0.082-0.549-0.245-0.734s-0.379-0.277-0.647-0.277s-0.484,0.093-0.647,0.277c-0.163,0.185-0.245,0.429-0.245,0.734
			C164.007,44.235,164.305,44.641,164.899,44.844z M166.736,44.942c0.355,0,0.611-0.089,0.766-0.266
			c0.156-0.178,0.234-0.466,0.234-0.864v-0.489c0-0.602-0.192-1.069-0.576-1.402c-0.312-0.275-0.685-0.413-1.12-0.413
			c-0.5,0-0.892,0.163-1.174,0.489h0.033c0.478,0,0.861,0.154,1.147,0.462c0.286,0.308,0.429,0.716,0.429,1.223
			c0,0.486-0.141,0.906-0.424,1.261h0.685L166.736,44.942L166.736,44.942z"/>
		<path fill="#006174" d="M169.802,45.822v-0.881h0.576c0.754,0,1.131-0.395,1.131-1.185V39.31l0.946-0.5v4.958
			c0,0.645-0.192,1.156-0.576,1.533c-0.362,0.348-0.837,0.522-1.424,0.522h-0.653V45.822z"/>
		<path fill="#006174" d="M174.412,45.822V39.31l0.935-0.5v7.012C175.347,45.822,174.412,45.822,174.412,45.822z"/>
	</g>
</g>
<g>
	<g>
		<path fill="#006174" d="M62.819,67.133h0.718v0.881h-0.826c-0.37,0-0.689-0.072-0.957-0.217c-0.065,0.718-0.315,1.29-0.75,1.718
			c-0.399,0.391-0.899,0.587-1.5,0.587c-0.435,0-0.859-0.109-1.272-0.326v-0.815c0.37,0.203,0.739,0.304,1.109,0.304
			c0.464,0,0.826-0.156,1.087-0.467c0.261-0.312,0.391-0.743,0.391-1.294v-3.708l0.935-0.5v0.011l0.011-0.011v2.968
			C61.83,66.844,62.182,67.133,62.819,67.133z M61.134,61.98c-0.355,0-0.533-0.181-0.533-0.544c0-0.355,0.178-0.533,0.533-0.533
			c0.348,0,0.522,0.178,0.522,0.533C61.656,61.799,61.482,61.98,61.134,61.98z"/>
		<path fill="#006174" d="M66.668,67.133h0.718v0.881H66.56c-0.602,0-1.076-0.192-1.424-0.576c-0.348,0.384-0.823,0.576-1.424,0.576
			h-0.826v-0.881h0.718c0.71,0,1.065-0.362,1.065-1.087v-2.25l0.935-0.5v2.751C65.603,66.771,65.958,67.133,66.668,67.133z
			 M64.07,69.101c0.348,0,0.522,0.181,0.522,0.544c0,0.355-0.174,0.533-0.522,0.533c-0.355,0-0.533-0.178-0.533-0.533
			C63.537,69.282,63.714,69.101,64.07,69.101z M65.45,69.101c0.348,0,0.522,0.181,0.522,0.544c0,0.355-0.174,0.533-0.522,0.533
			c-0.355,0-0.533-0.178-0.533-0.533C64.918,69.282,65.095,69.101,65.45,69.101z"/>
		<path fill="#006174" d="M73.735,67.133h0.728v0.881h-0.826c-0.602,0-1.076-0.192-1.424-0.576c-0.37,0.529-0.91,0.794-1.62,0.794
			s-1.247-0.261-1.609-0.783c-0.341,0.377-0.815,0.565-1.424,0.565h-0.826v-0.881h0.718c0.71,0,1.065-0.362,1.065-1.087v-0.359
			c0-0.841,0.207-1.486,0.62-1.935c0.362-0.399,0.848-0.598,1.457-0.598c0.696,0,1.232,0.257,1.609,0.772
			c0.319,0.442,0.478,1.029,0.478,1.761v0.359C72.68,66.771,73.031,67.133,73.735,67.133z M70.593,67.351
			c0.355,0,0.636-0.148,0.843-0.446c0.207-0.297,0.31-0.707,0.31-1.229c0-1.102-0.384-1.652-1.152-1.652
			c-0.761,0-1.142,0.551-1.142,1.652C69.451,66.793,69.832,67.351,70.593,67.351z"/>
		<path fill="#006174" d="M77.594,67.133h0.718v0.881h-0.826c-0.602,0-1.076-0.192-1.424-0.576
			c-0.348,0.384-0.823,0.576-1.424,0.576h-0.826v-0.881h0.718c0.71,0,1.065-0.362,1.065-1.087v-2.25l0.935-0.5v2.751
			C76.529,66.771,76.884,67.133,77.594,67.133z M75.028,62.056c-0.355,0-0.533-0.181-0.533-0.544c0-0.355,0.177-0.533,0.533-0.533
			c0.348,0,0.522,0.178,0.522,0.533C75.55,61.875,75.376,62.056,75.028,62.056z M76.42,62.056c-0.355,0-0.533-0.181-0.533-0.544
			c0-0.355,0.178-0.533,0.533-0.533c0.348,0,0.522,0.178,0.522,0.533C76.942,61.875,76.768,62.056,76.42,62.056z"/>
		<path fill="#006174" d="M77.659,68.014v-0.881h0.576c0.754,0,1.131-0.395,1.131-1.185v-4.447l0.946-0.5v4.958
			c0,0.645-0.192,1.156-0.576,1.533c-0.362,0.348-0.837,0.522-1.424,0.522C78.312,68.014,77.659,68.014,77.659,68.014z"/>
		<path fill="#006174" d="M82.269,68.014v-6.512l0.935-0.5v7.012H82.269z"/>
		<path fill="#006174" d="M87.835,67.666c-0.276,0.109-0.613,0.163-1.011,0.163c-0.645,0-1.152-0.243-1.522-0.728
			c-0.312-0.413-0.467-0.931-0.467-1.555c0-0.768,0.207-1.37,0.62-1.805c0.37-0.391,0.855-0.587,1.457-0.587
			c0.616,0,1.091,0.192,1.424,0.576c0.297,0.341,0.446,0.787,0.446,1.337v2.37c0,0.819-0.214,1.468-0.641,1.946
			c-0.406,0.449-0.946,0.674-1.62,0.674c-0.45,0-0.874-0.105-1.272-0.315v-0.826c0.384,0.203,0.765,0.304,1.142,0.304
			c0.428,0,0.768-0.136,1.022-0.408C87.665,68.541,87.806,68.159,87.835,67.666z M87.835,65.111c0-0.725-0.308-1.087-0.924-1.087
			c-0.363,0-0.647,0.134-0.853,0.402c-0.207,0.268-0.31,0.634-0.31,1.098c0,0.457,0.1,0.821,0.299,1.093
			c0.199,0.272,0.469,0.408,0.81,0.408c0.478,0,0.805-0.134,0.979-0.402L87.835,65.111L87.835,65.111z"/>
		<path fill="#006174" d="M92.401,71.439v-2.37c0-0.616,0.178-1.094,0.533-1.435c0.319-0.312,0.761-0.478,1.326-0.5
			c-0.326-0.37-0.489-0.884-0.489-1.544c0-0.79,0.207-1.406,0.62-1.848c0.37-0.391,0.855-0.587,1.457-0.587
			c0.616,0,1.091,0.192,1.424,0.576c0.297,0.341,0.446,0.787,0.446,1.337v1.174c-0.007,0.544-0.178,0.971-0.511,1.283
			S96.413,68,95.826,68.014h-1.424c-0.71,0-1.065,0.362-1.065,1.087v1.837L92.401,71.439z M96.782,65.111
			c0-0.725-0.312-1.087-0.935-1.087c-0.362,0-0.643,0.136-0.843,0.408c-0.199,0.272-0.299,0.651-0.299,1.136
			c0,0.493,0.094,0.877,0.283,1.152c0.188,0.275,0.453,0.413,0.794,0.413c0.667,0,1-0.337,1-1.011
			C96.782,66.122,96.782,65.111,96.782,65.111z"/>
		<path fill="#006174" d="M99.566,68.014v-6.512l0.935-0.5v7.012H99.566z"/>
		<path fill="#006174" d="M105.827,67.133h0.718v0.881h-0.826c-0.37,0-0.689-0.072-0.957-0.217c-0.065,0.718-0.315,1.29-0.75,1.718
			c-0.399,0.391-0.899,0.587-1.5,0.587c-0.435,0-0.859-0.109-1.272-0.326v-0.815c0.37,0.203,0.739,0.304,1.109,0.304
			c0.464,0,0.826-0.156,1.087-0.467c0.261-0.312,0.392-0.743,0.392-1.294v-3.708l0.935-0.5v0.011l0.011-0.011v2.968
			C104.838,66.844,105.19,67.133,105.827,67.133z M104.142,61.98c-0.355,0-0.533-0.181-0.533-0.544c0-0.355,0.177-0.533,0.533-0.533
			c0.348,0,0.522,0.178,0.522,0.533C104.664,61.799,104.49,61.98,104.142,61.98z"/>
		<path fill="#006174" d="M109.676,67.133h0.718v0.881h-0.826c-0.602,0-1.076-0.192-1.424-0.576
			c-0.348,0.384-0.823,0.576-1.424,0.576h-0.826v-0.881h0.718c0.71,0,1.065-0.362,1.065-1.087v-2.25l0.935-0.5v2.751
			C108.61,66.771,108.966,67.133,109.676,67.133z M107.11,62.056c-0.355,0-0.533-0.181-0.533-0.544c0-0.355,0.177-0.533,0.533-0.533
			c0.348,0,0.522,0.178,0.522,0.533C107.632,61.875,107.458,62.056,107.11,62.056z M108.502,62.056
			c-0.355,0-0.533-0.181-0.533-0.544c0-0.355,0.178-0.533,0.533-0.533c0.348,0,0.522,0.178,0.522,0.533
			C109.024,61.875,108.85,62.056,108.502,62.056z"/>
		<path fill="#006174" d="M109.741,68.014v-0.881h0.576c0.754,0,1.131-0.395,1.131-1.185v-4.447l0.946-0.5v4.958
			c0,0.645-0.192,1.156-0.576,1.533c-0.362,0.348-0.837,0.522-1.424,0.522C110.394,68.014,109.741,68.014,109.741,68.014z"/>
		<path fill="#006174" d="M118.384,61.502l0.946-0.5v4.958c0,0.645-0.192,1.156-0.576,1.533c-0.362,0.348-0.837,0.522-1.424,0.522
			h-3.74l0.457-0.881h1.587v-4.218l0.935-0.5v4.718h0.685c0.754,0,1.131-0.395,1.131-1.185L118.384,61.502L118.384,61.502z"/>
		<path fill="#006174" d="M121.287,68.014v-6.512l0.935-0.5v7.012H121.287z"/>
	</g>
</g>
</svg>
